<svg width="1280" height="720" xmlns="http://www.w3.org/2000/svg" xmlns:xlink="http://www.w3.org/1999/xlink" overflow="hidden"><defs><clipPath id="clip0"><rect x="0" y="0" width="1280" height="720"/></clipPath></defs><g clip-path="url(#clip0)"><rect x="0" y="0" width="1280" height="720" fill="#FFFFFF"/><rect x="373" y="43" width="534" height="71" stroke="#000000" stroke-width="2" stroke-miterlimit="8" fill="#4472C4"/><text fill="#FFFFFF" font-family="Times New Roman,Times New Roman_MSFontService,sans-serif" font-weight="400" font-size="48" transform="translate(398 91)">Diamonds DataMad0121<tspan fill="#000000" font-family="Arial,Arial_MSFontService,sans-serif" font-size="32" x="-319.352" y="87">•</tspan><tspan fill="#000000" font-size="32" x="-271.352" y="87">Original</tspan><tspan fill="#000000" font-size="32" x="-156.851" y="87">dataset</tspan><tspan fill="#000000" font-size="32" x="-60.1848" y="87">→</tspan><tspan fill="#000000" font-size="32" x="-20.1848" y="87">Diamonds</tspan><tspan fill="#000000" font-size="32" x="111.315" y="87">:</tspan><tspan fill="#000000" font-size="32" x="128.148" y="87">carat,</tspan><tspan fill="#000000" font-size="32" x="206.148" y="87">cut,</tspan><tspan fill="#000000" font-size="32" x="261.148" y="87">color,</tspan><tspan fill="#000000" font-size="32" x="341.535" y="87">clarity,</tspan><tspan fill="#000000" font-size="32" x="436.955" y="87">depth,</tspan><tspan fill="#000000" font-size="32" x="523.955" y="87">table,</tspan><tspan fill="#000000" font-size="32" x="601.955" y="87">x,</tspan><tspan fill="#000000" font-size="32" x="633.955" y="87">y,</tspan><tspan fill="#000000" font-size="32" x="663.875" y="87">z,</tspan><tspan fill="#000000" font-size="32" x="694.042" y="87">price</tspan><tspan fill="#000000" font-family="Arial,Arial_MSFontService,sans-serif" font-size="32" x="-319.352" y="135">•</tspan><tspan fill="#000000" font-size="32" x="-271.352" y="135">Target</tspan><tspan fill="#000000" font-size="32" x="-182.831" y="135">→</tspan><tspan fill="#000000" font-size="32" x="-142.831" y="135">Predict</tspan><tspan fill="#000000" font-size="32" x="-44.3315" y="135">price</tspan><tspan fill="#000000" font-family="Arial,Arial_MSFontService,sans-serif" font-size="32" x="-319.352" y="183">•</tspan><tspan fill="#000000" font-size="32" x="-271.352" y="183">Data</tspan><tspan fill="#000000" font-size="32" x="-203.018" y="183">management</tspan><tspan fill="#000000" font-size="32" x="-39.8515" y="183">:</tspan><tspan fill="#000000" font-family="Arial,Arial_MSFontService,sans-serif" font-size="27" x="-271.352" y="220">•</tspan><tspan fill="#000000" font-size="27" x="-223.351" y="220">For</tspan><tspan fill="#000000" font-size="27" x="-179.685" y="220">Linear</tspan><tspan fill="#000000" font-size="27" x="-103.518" y="220">Regression</tspan><tspan fill="#000000" font-size="27" x="21.4818" y="220">→</tspan><tspan fill="#000000" font-size="27" x="54.8152" y="220">Drop</tspan><tspan fill="#000000" font-size="27" x="116.315" y="220">correlations</tspan><tspan fill="#000000" font-size="27" x="248.482" y="220">and</tspan><tspan fill="#000000" font-size="27" x="293.648" y="220">standardize</tspan><tspan fill="#000000" font-size="27" x="421.482" y="220">the</tspan><tspan fill="#000000" font-size="27" x="460.648" y="220">data</tspan><tspan fill="#000000" font-family="Arial,Arial_MSFontService,sans-serif" font-size="27" x="-271.352" y="255">•</tspan><tspan fill="#000000" font-size="27" x="-223.351" y="255">For</tspan><tspan fill="#000000" font-size="27" x="-177.958" y="255">Random</tspan><tspan fill="#000000" font-size="27" x="-79.2315" y="255">Forest</tspan><tspan fill="#000000" font-size="27" x="-4.33817" y="255">→</tspan><tspan fill="#000000" font-size="27" x="39.1152" y="255">One</tspan><tspan fill="#000000" font-size="27" x="92.0152" y="255">Hot</tspan><tspan fill="#000000" font-size="27" x="140.415" y="255">Encoding</tspan><tspan fill="#000000" font-size="27" x="250.982" y="255">(Dummies)</tspan><tspan fill="#000000" font-size="27" x="380.549" y="255">and</tspan><tspan fill="#000000" font-size="27" x="427.449" y="255">Ordinal</tspan><tspan fill="#000000" font-size="27" x="517.182" y="255">Encoding</tspan><tspan fill="#000000" font-size="27" x="627.749" y="255">(Giving</tspan><tspan fill="#000000" font-size="27" x="718.982" y="255">keeping</tspan><tspan fill="#000000" font-size="27" x="-223.351" y="284">the</tspan><tspan fill="#000000" font-size="27" x="-184.185" y="284">order)</tspan><tspan fill="#000000" font-family="Arial,Arial_MSFontService,sans-serif" font-size="32" x="-319.352" y="330">•</tspan><tspan fill="#000000" font-size="32" x="-271.352" y="330">Models</tspan><tspan fill="#000000" font-size="32" x="-167.351" y="330">tested</tspan><tspan fill="#000000" font-size="32" x="-92.8515" y="330">:</tspan><tspan fill="#000000" font-family="Arial,Arial_MSFontService,sans-serif" font-size="27" x="-271.352" y="367">•</tspan><tspan fill="#000000" font-size="27" x="-223.351" y="367">Linear</tspan><tspan fill="#000000" font-size="27" x="-147.185" y="367">Regression</tspan><tspan fill="#000000" font-size="27" x="-28.8515" y="367">:</tspan><tspan fill="#000000" font-size="27" x="-14.8515" y="367">Drop</tspan><tspan fill="#000000" font-size="27" x="46.6485" y="367">correlations</tspan><tspan fill="#000000" font-size="27" x="178.815" y="367">→</tspan><tspan fill="#000000" font-size="27" x="212.148" y="367">Pipeline</tspan><tspan fill="#000000" font-size="27" x="305.982" y="367">→</tspan><tspan fill="#000000" font-size="27" x="339.315" y="367">Standard</tspan><tspan fill="#000000" font-size="27" x="440.648" y="367">Scaler</tspan><tspan fill="#000000" font-size="27" x="513.815" y="367">→</tspan><tspan fill="#000000" font-size="27" x="547.148" y="367">Predict</tspan><tspan fill="#000000" font-size="27" x="-223.351" y="403">Best</tspan><tspan fill="#000000" font-size="27" x="-169.351" y="403">mse</tspan><tspan fill="#000000" font-size="27" x="-126.518" y="403">:</tspan><tspan fill="#FF0000" font-size="27" x="-112.518" y="403">0</tspan><tspan fill="#FF0000" font-size="27" x="-99.1848" y="403">.</tspan><tspan fill="#FF0000" font-size="27" x="-92.5182" y="403">08</tspan><tspan fill="#FF0000" font-size="27" x="-65.8515" y="403">7</tspan><tspan fill="#000000" font-family="Arial,Arial_MSFontService,sans-serif" font-size="27" x="-271.352" y="438">•</tspan><tspan fill="#000000" font-size="27" x="-223.351" y="438">Random</tspan><tspan fill="#000000" font-size="27" x="-126.352" y="438">Forest</tspan><tspan fill="#000000" font-size="27" x="-59.8515" y="438">:</tspan><tspan fill="#000000" font-size="27" x="-45.8515" y="438">Encoding</tspan><tspan fill="#000000" font-size="27" x="62.9818" y="438">→</tspan><tspan fill="#000000" font-size="27" x="96.3152" y="438">Grid</tspan><tspan fill="#000000" font-size="27" x="151.815" y="438">Search</tspan><tspan fill="#000000" font-size="27" x="230.982" y="438">CV</tspan><tspan fill="#000000" font-size="27" x="274.335" y="438">→</tspan><tspan fill="#000000" font-size="27" x="307.669" y="438">Best</tspan><tspan fill="#000000" font-size="27" x="361.669" y="438">→</tspan><tspan fill="#000000" font-size="27" x="395.002" y="438">Predict</tspan><tspan fill="#000000" font-size="27" x="477.002" y="438">→</tspan><tspan fill="#000000" font-size="27" x="508.862" y="438">Adjust</tspan><tspan fill="#000000" font-size="27" x="-223.351" y="474">Best</tspan><tspan fill="#000000" font-size="27" x="-169.351" y="474">mse</tspan><tspan fill="#000000" font-size="27" x="-126.518" y="474">:</tspan><tspan fill="#70AD47" font-size="27" x="-112.518" y="474">0</tspan><tspan fill="#70AD47" font-size="27" x="-99.1848" y="474">.</tspan><tspan fill="#70AD47" font-size="27" x="-92.5182" y="474">0022</tspan></text></g></svg>